<svg xmlns="http://www.w3.org/2000/svg" xmlns:xlink="http://www.w3.org/1999/xlink" width="22" height="19" viewBox="0 0 22 19"><defs><path id="eytca" d="M1424 121c-1.1 0-2-.9-2-2s.9-2 2-2 2 .9 2 2-.9 2-2 2zm-.01-12.21l2.81 4.21h-5.62zM1434 113h-4.79l-4.39-6.57a1 1 0 0 0-1.66 0l-4.39 6.57H1414c-.55 0-1 .45-1 1 0 .09.01.18.04.27l2.54 9.27c.23.84 1 1.46 1.92 1.46h13c.92 0 1.69-.62 1.93-1.46l2.54-9.27.03-.27c0-.55-.45-1-1-1z"/></defs><g><g transform="translate(-1413 -106)"><use xlink:href="#eytca"/></g></g></svg>