<svg xmlns="http://www.w3.org/2000/svg" xmlns:xlink="http://www.w3.org/1999/xlink" width="40" height="36" viewBox="0 0 40 36"><defs><path id="uycwa" d="M383.622 1158.613c1.124 0 2.21-.073 3.239-.208v-11.27a24.932 24.932 0 0 0-3.24-.208c-6.418 0-11.62 2.36-11.62 5.271v1.143c0 2.912 5.202 5.272 11.62 5.272z"/><path id="uycwb" d="M383.622 1164.497c1.124 0 2.21-.072 3.239-.207v-3.304a24.927 24.927 0 0 1-3.24.209c-5.602 0-10.278-1.798-11.376-4.191a2.57 2.57 0 0 0-.245 1.08v1.142c0 2.911 5.203 5.271 11.622 5.271z"/><path id="uycwc" d="M386.86 1167.128v-.257a24.925 24.925 0 0 1-3.238.209c-5.603 0-10.28-1.798-11.378-4.192a2.57 2.57 0 0 0-.244 1.08v1.143c0 2.911 5.203 5.271 11.622 5.271 1.283 0 2.518-.095 3.672-.269a4.158 4.158 0 0 1-.434-1.842z"/><path id="uycwd" d="M400.378 1138c-6.418 0-11.621 2.36-11.621 5.271v1.143c0 2.911 5.203 5.271 11.621 5.271 6.419 0 11.622-2.36 11.622-5.27v-1.144c0-2.911-5.203-5.27-11.622-5.27z"/><path id="uycwe" d="M400.378 1152.268c-5.602 0-10.278-1.798-11.377-4.192a2.57 2.57 0 0 0-.244 1.08v1.143c0 2.911 5.203 5.271 11.621 5.271 6.419 0 11.622-2.36 11.622-5.271v-1.143c0-.37-.084-.731-.244-1.08-1.099 2.394-5.775 4.192-11.378 4.192z"/><path id="uycwf" d="M400.378 1158.153c-5.602 0-10.278-1.799-11.377-4.192a2.57 2.57 0 0 0-.244 1.08v1.143c0 2.911 5.203 5.27 11.621 5.27 6.419 0 11.622-2.359 11.622-5.27v-1.143c0-.37-.084-.731-.244-1.08-1.099 2.393-5.775 4.192-11.378 4.192z"/><path id="uycwg" d="M400.378 1164.355c-5.602 0-10.278-1.798-11.377-4.191a2.57 2.57 0 0 0-.244 1.079v1.143c0 2.911 5.203 5.271 11.621 5.271 6.419 0 11.622-2.36 11.622-5.27v-1.144c0-.37-.084-.731-.244-1.08-1.099 2.394-5.775 4.192-11.378 4.192z"/><path id="uycwh" d="M400.378 1170.24c-5.602 0-10.278-1.798-11.377-4.192a2.57 2.57 0 0 0-.244 1.08v1.143c0 2.911 5.203 5.271 11.621 5.271 6.419 0 11.622-2.36 11.622-5.271v-1.143c0-.37-.084-.731-.244-1.08-1.099 2.394-5.775 4.192-11.378 4.192z"/></defs><g><g transform="translate(-372 -1138)"><g><g><use xlink:href="#uycwa"/></g><g><use xlink:href="#uycwb"/></g><g><use xlink:href="#uycwc"/></g><g><use xlink:href="#uycwd"/></g><g><use xlink:href="#uycwe"/></g><g><use xlink:href="#uycwf"/></g><g><use xlink:href="#uycwg"/></g><g><use xlink:href="#uycwh"/></g></g></g></g></svg>