<?xml version="1.0" encoding="utf-8"?>
<!-- Generator: Adobe Illustrator 22.1.0, SVG Export Plug-In . SVG Version: 6.00 Build 0)  -->
<svg version="1.1" id="&#x421;&#x43B;&#x43E;&#x439;_1" xmlns="http://www.w3.org/2000/svg" xmlns:xlink="http://www.w3.org/1999/xlink" x="0px" y="0px" viewBox="0 0 512 512" xml:space="preserve">

<path class="st0" d="M501.1,332.4h-26.5c-2.6-50.9-25.1-98.4-64-134.5c-29.9-27.6-66.9-46.5-106.8-54.5v-21.3
	c0-27.4-22.2-49.6-49.6-49.6s-49.6,22.2-49.6,49.6v22.1c-38.5,8.4-74.2,27-103.1,53.7C62.5,234,40,281.5,37.4,332.4H10.9
	c-3.7,0-7.2,1.9-9.2,5c-2,3.1-2.3,7.1-0.7,10.4l24.2,51.7c0,0.1,0.1,0.2,0.1,0.2c12.3,24.8,37.6,40.4,65.2,40.3h330.8
	c27.7,0.1,53-15.5,65.2-40.3c0-0.1,0.1-0.2,0.1-0.2l24.2-51.7c1.6-3.4,1.3-7.3-0.7-10.4C508.3,334.3,504.8,332.4,501.1,332.4
	L501.1,332.4z M226.4,122.1c0-15.4,12.5-27.8,27.8-27.8s27.8,12.5,27.8,27.8V140c-18.5-2-37.2-1.9-55.6,0.4V122.1z M116.3,213.9
	c37.2-34.5,86.8-53.5,139.7-53.5s102.5,19,139.7,53.5c34.4,32,54.4,73.7,57.1,118.6H59.2C61.8,287.6,81.8,245.8,116.3,213.9z
	 M467.1,390.3c-8.6,17.3-26.4,28.2-45.7,28.2H90.6c-19.4,0.1-37.1-10.9-45.7-28.2L28,354.2h456L467.1,390.3z"/>
</svg>
