<svg xmlns="http://www.w3.org/2000/svg" xmlns:xlink="http://www.w3.org/1999/xlink" width="24" height="24" viewBox="0 0 24 24"><defs><path id="icbsa" d="M392 545c6.627 0 12 5.373 12 12s-5.373 12-12 12-12-5.373-12-12 5.373-12 12-12z"/><path id="icbsb" d="M391.584 551.271a.464.464 0 0 1 .417-.27c.176 0 .338.104.416.27l1.494 3.171a.467.467 0 0 0 .35.266l3.342.509a.47.47 0 0 1 .374.33c.055.177.01.37-.117.5l-2.418 2.468a.502.502 0 0 0-.133.43l.57 3.486a.498.498 0 0 1-.185.476.449.449 0 0 1-.49.038l-2.988-1.646a.446.446 0 0 0-.432 0l-2.989 1.645a.448.448 0 0 1-.489-.037.498.498 0 0 1-.185-.476l.57-3.485a.5.5 0 0 0-.133-.43l-2.418-2.47a.503.503 0 0 1-.117-.498.47.47 0 0 1 .375-.331l3.342-.509a.467.467 0 0 0 .35-.266z"/></defs><g><g transform="translate(-380 -545)"><g><use xlink:href="#icbsa"/></g><g><use xlink:href="#icbsb"/></g></g></g></svg>