<svg xmlns="http://www.w3.org/2000/svg" xmlns:xlink="http://www.w3.org/1999/xlink" width="24" height="24" viewBox="0 0 24 24"><defs><path id="4p4na" d="M580 505c0-6.627 5.373-12 12-12s12 5.373 12 12-5.373 12-12 12-12-5.373-12-12z"/><path id="4p4nb" d="M592 512.333c-1.103 0-2-.956-2-2.13 0-.04 0-.08.003-.13.013-.496.107-.834.21-1.059.194.416.54.797 1.1.797.185 0 .334-.149.334-.333 0-.475.01-1.022.128-1.516.105-.438.357-.904.675-1.278.141.485.418.877.687 1.26.386.549.785 1.115.855 2.082.004.057.008.115.008.177 0 1.174-.897 2.13-2 2.13zm5.966-5.965c-.183-2.386-1.294-3.882-2.275-5.201-.907-1.222-1.691-2.277-1.691-3.833a.334.334 0 0 0-.527-.271c-1.472 1.053-2.7 2.828-3.13 4.522-.297 1.18-.337 2.505-.342 3.38-1.36-.29-1.668-2.323-1.67-2.345a.335.335 0 0 0-.476-.253c-.072.035-1.75.887-1.848 4.292A6.007 6.007 0 0 0 592 513c.005 0 .01.002.013 0h.005A6.007 6.007 0 0 0 598 507c0-.166-.034-.632-.034-.632z"/></defs><g><g transform="translate(-580 -493)"><g><use xlink:href="#4p4na"/></g><g><use xlink:href="#4p4nb"/></g></g></g></svg>