<svg xmlns="http://www.w3.org/2000/svg" xmlns:xlink="http://www.w3.org/1999/xlink" width="17" height="21" viewBox="0 0 17 21"><defs><path id="e5nha" d="M410.336 760.117c-.188.508-.495 1.01-.912 1.494a.025.025 0 0 0-.003.003l-5.282 6.204-5.286-6.208a4.936 4.936 0 0 1-.913-1.498c-.76-2.011-.472-4.287.772-6.087 1.248-1.806 3.226-2.842 5.427-2.842 2.2 0 4.178 1.036 5.426 2.842 1.244 1.8 1.533 4.076.771 6.092zm.367-6.879c-1.51-2.185-3.903-3.438-6.564-3.438-2.662 0-5.055 1.253-6.565 3.438-1.502 2.174-1.849 4.927-.93 7.358a6.29 6.29 0 0 0 1.16 1.914l5.808 6.823a.691.691 0 0 0 1.053 0l5.807-6.82c.525-.609.915-1.253 1.159-1.912.921-2.436.574-5.189-.928-7.363z"/><path id="e5nhb" d="M404.139 760.264a2.492 2.492 0 0 1-2.49-2.49 2.492 2.492 0 0 1 2.49-2.488 2.492 2.492 0 0 1 2.489 2.489 2.492 2.492 0 0 1-2.49 2.49zm0-6.361a3.877 3.877 0 0 0-3.873 3.872 3.877 3.877 0 0 0 3.873 3.872 3.877 3.877 0 0 0 3.872-3.872 3.877 3.877 0 0 0-3.872-3.872z"/></defs><g><g transform="translate(-396 -749)"><g><g><g><use xlink:href="#e5nha"/></g></g></g><g><g><g><use xlink:href="#e5nhb"/></g></g></g></g></g></svg>