<svg xmlns="http://www.w3.org/2000/svg" xmlns:xlink="http://www.w3.org/1999/xlink" width="40" height="24" viewBox="0 0 40 24"><defs><path id="icfqa" d="M656.93 5132.804h-.084l-.051-.127h-.05v.127h-.068v-.324h.135c.017 0 .05 0 .085.018a.12.12 0 0 1 .033.08c0 .037-.016.07-.05.085zm.204-.336a.346.346 0 0 0-.147-.144.385.385 0 0 0-.189-.051.385.385 0 0 0-.19.051.389.389 0 0 0 .192.724.39.39 0 0 0 .19-.051.391.391 0 0 0 .143-.529z"/><path id="icfqb" d="M656.83 5132.546c0-.007-.034-.007-.052-.007h-.033v.084h.05s.018 0 .035-.007c.017-.007.017-.023.017-.038 0-.012 0-.026-.017-.032z"/><path id="icfqc" d="M653.827 5128.877a.372.372 0 0 1-.373-.369c0-.2.17-.365.373-.365.203 0 .372.165.372.365 0 .205-.17.369-.372.369zm-2.91.126c-1.61 0-2.25-.975-2.25-2.168 0-1.665 1.098-2.794 2.79-2.794 1.473 0 2.251.928 2.251 2.12 0 .292 0 .312-.033.585-.22 1.564-1.304 2.258-2.757 2.257zm-2.51-3.503c-.676 0-.895.505-1.403 3.38h-1.421l.863-4.702h1.286l-.135.714c.44-.556.777-.764 1.234-.764.052 0 .103.005.153.011 0 .003.052.012.12.028.017.005.034.005.153.052l-.506 1.328-.17-.035a1.365 1.365 0 0 0-.173-.012zm-3.46 2.325c.152 0 .27-.015.372-.046l-.186 1.043a3.683 3.683 0 0 1-1.015.154c-.728 0-1.117-.367-1.117-1.033 0-.132.017-.273.034-.422l.085-.463.067-.371.66-3.589h1.403l-.202 1.08h.727l-.204 1.143h-.727l-.372 1.96c-.017.086-.017.15-.017.194 0 .245.152.348.493.35zm-2.217-2.57a9.524 9.524 0 0 0-1.032-.068c-.458 0-.694.13-.694.382 0 .22.068.273.66.511.726.286 1.015.664 1.015 1.309 0 1.072-.694 1.568-2.217 1.568-.185 0-.438-.014-.777-.039a3.55 3.55 0 0 1-.39-.043l-.253-.046-.068-.013.203-1.085c.457.13.847.186 1.286.186.558 0 .812-.131.812-.424 0-.215-.085-.285-.66-.52-.76-.306-1.1-.717-1.1-1.31 0-.867.559-1.59 2.15-1.59.338 0 .897.041 1.267.093zm-2.602 7.096h-4.248c-.258-.414-.5-.838-.707-1.284h5.652c-.208.444-.44.871-.697 1.284zm-2.963-8.29c1.166 0 1.911.664 1.911 1.706 0 .349-.051.685-.17 1.162h-2.807c-.018.072-.018.105-.018.15 0 .543.423.82 1.235.82a3.74 3.74 0 0 0 1.472-.298l-.236 1.177a5.48 5.48 0 0 1-1.438.19c-1.59 0-2.42-.723-2.42-2.107 0-1.612 1.05-2.799 2.471-2.8zm-2.826 2.319l-.305 1.67-.05.298-.034.238-.018.16-.016.128h-1.184l.034-.486c-.354.388-.846.567-1.488.567-.762 0-1.286-.524-1.286-1.282 0-1.144.913-1.812 2.486-1.812.152 0 .355.014.575.036.034-.155.05-.22.05-.305 0-.31-.254-.427-.913-.427-.406 0-.863.05-1.167.13l-.203.052-.118.03.186-1.058c.71-.18 1.167-.248 1.691-.248 1.218 0 1.861.478 1.861 1.378 0 .234-.016.408-.101.93zm-5.025 2.497h-1.421l.846-4.445-1.945 4.445h-1.285l-.237-4.415-.846 4.415h-1.286l1.1-5.78h2.216l.101 3.58 1.574-3.58h2.301zm11.488-7.99c.195.417.367.845.516 1.286H634.7c.065-.125.296-.624.646-1.286zm-3.893-2.545h2.275c.337.407.648.836.929 1.285h-4.058c.26-.43.547-.87.854-1.285zm9.12-4.342a11.912 11.912 0 0 0-8.031 3.102 11.91 11.91 0 0 0-8.027-3.1h-.077c-6.573.044-11.894 5.402-11.894 11.998 0 6.623 5.364 11.996 11.971 11.996 3.087 0 5.901-1.174 8.026-3.1a11.856 11.856 0 0 1-1.224-1.31h2.473c-.374.458-.781.887-1.216 1.284h-.003l.001.002c-.01.009-.02.015-.03.025a11.905 11.905 0 0 0 8.035 3.103c6.612-.001 11.969-5.375 11.967-12v-.005c-.002-6.625-5.363-11.995-11.972-11.995z"/><path id="icfqd" d="M653.961 5128.672h-.085l-.051-.126h-.051v.126h-.068v-.325h.135c.019 0 .052.002.086.02a.12.12 0 0 1 .034.08.09.09 0 0 1-.051.085zm-.134-.442a.288.288 0 0 0-.288.278c0 .158.136.282.288.282.152 0 .27-.126.27-.282a.273.273 0 0 0-.27-.278z"/><path id="icfqe" d="M653.86 5128.413c0-.007-.033-.007-.05-.007h-.035v.083h.05s.018 0 .035-.006c.017-.008.017-.023.017-.037 0-.013 0-.026-.017-.033z"/><path id="icfqf" d="M637.148 5125.137c-.457 0-.778.3-.914.844l1.574.003v-.243c0-.382-.237-.604-.66-.604z"/><path id="icfqg" d="M632.562 5126.765c-.794 0-1.2.24-1.2.715 0 .293.187.48.507.48.576 0 .981-.482 1.015-1.177a2.644 2.644 0 0 0-.322-.018z"/><path id="icfqh" d="M651.424 5125.191c-.728 0-1.167.857-1.167 1.612 0 .639.304 1.067.812 1.057.305 0 .964-.42 1.083-1.152.033-.171.05-.359.05-.563 0-.49-.202-.956-.778-.954z"/></defs><g><g transform="translate(-618 -5114)"><g><g><g><use xlink:href="#icfqa"/></g></g></g><g><g><g><use xlink:href="#icfqb"/></g></g></g><g><g><g><use xlink:href="#icfqc"/></g></g></g><g><g><g><use xlink:href="#icfqd"/></g></g></g><g><g><g><use xlink:href="#icfqe"/></g></g></g><g><g><g><use xlink:href="#icfqf"/></g></g></g><g><g><g><use xlink:href="#icfqg"/></g></g></g><g><g><g><use xlink:href="#icfqh"/></g></g></g></g></g></svg>