<svg xmlns="http://www.w3.org/2000/svg" xmlns:xlink="http://www.w3.org/1999/xlink" width="40" height="24" viewBox="0 0 40 24"><defs><path id="tx7xa" d="M600.973 5128.88a.381.381 0 0 1-.526.145.381.381 0 0 1-.143-.145.385.385 0 0 1 0-.386.392.392 0 0 1 .334-.195c.066 0 .129.017.19.051a.382.382 0 0 1 .145.53zm-2.52.171l.055-.456s-.423.535-1.188.535c-1.06 0-1.58-1.025-1.58-2.073 0-1.62.974-3.034 2.142-3.034.751.002 1.231.667 1.231.667l.276-1.71 1.278-.002-.975 6.073zm-3.907.014h-1.308l.796-4.951h1.187l-.114.717s.424-.78.995-.78c.166 0 .245.016.245.016-.168.346-.32.663-.474 1.482-.886-.315-.954 1.4-1.327 3.516zm-2.648-.017l.043-.49c-.021.003-.41.588-1.308.588-.47 0-1.23-.258-1.23-1.377 0-1.422 1.157-1.894 2.26-1.894.173 0 .548.031.548.031s.043-.086.043-.32c0-.387-.347-.44-.823-.44-.837 0-1.389.224-1.389.224l.185-1.1s.671-.282 1.545-.282c.451 0 1.751.048 1.75 1.54l-.5 3.518c-.001.002-1.124.002-1.124.002zm-3.069-.06s-.685.175-1.115.175c-1.521 0-2.294-1.052-2.294-2.645 0-2.403 1.432-3.682 2.903-3.682.665 0 1.435.312 1.435.312l-.208 1.354s-.521-.365-1.17-.365c-.867 0-1.645.829-1.645 2.336 0 .743.363 1.435 1.268 1.435.43 0 1.054-.314 1.054-.314zm-6.293.077l.795-4.951h1.187l-.114.717s.423-.78.994-.78c.166 0 .246.016.246.016-.17.346-.319.663-.474 1.482-.885-.315-.953 1.4-1.326 3.516zm1.593 3.285h-4.247a11.87 11.87 0 0 1-.707-1.285h5.652c-.208.444-.44.872-.698 1.285zm-3.375-8.379c1.399 0 1.818 1.026 1.818 1.868 0 .337-.169 1.165-.169 1.165h-2.59s-.24 1.022 1.129 1.022c.642 0 1.354-.315 1.354-.315l-.225 1.231s-.411.21-1.346.21c-1.014 0-2.202-.43-2.202-2.234 0-1.563.949-2.947 2.23-2.947zm-2.804 3.97c.113 0 .241-.038.329-.038l-.16 1.085c-.127.035-.49.164-.955.168-.594.005-1.016-.328-1.016-1.083 0-.506.724-4.68.752-4.708h1.275l-.13.747h.636l-.162 1.202h-.675l-.359 2.216c-.027.176.022.411.465.411zm-1.97-.445c0 1.698-1.642 1.625-1.928 1.625-1.07 0-1.4-.148-1.43-.157l.17-1.117c0-.01.536.195 1.132.195.343 0 .79-.034.79-.446 0-.615-1.596-.468-1.596-1.93 0-1.291.956-1.668 1.9-1.668.728 0 1.175.1 1.175.1l-.16 1.127s-.692-.057-.871-.057c-.454 0-.7.1-.7.417-.001.64 1.518.326 1.518 1.911zm-4.744 1.55l.042-.486c-.02.002-.408.587-1.307.587-.471 0-1.231-.258-1.231-1.377 0-1.423 1.158-1.894 2.26-1.894.174 0 .548.031.548.031s.042-.087.042-.322c0-.386-.347-.44-.822-.44-.836 0-1.389.225-1.389.225l.185-1.1s.67-.282 1.544-.282c.452 0 1.751.048 1.751 1.54l-.5 3.518zm-4.349.01l.726-4.587-1.638 4.587h-.878l-.114-4.587-.775 4.587h-1.23l1.02-6.084h1.86l.065 3.733 1.256-3.733h2.018l-1.006 6.084zm12.46-8.17h5.458c.194.415.366.845.516 1.285h-6.62c.066-.124.297-.624.647-1.285zm3.838-2.545c.336.408.647.836.93 1.285h-4.06c.262-.429.55-.87.855-1.285zm6.843-4.34c-3.09 0-5.907 1.174-8.03 3.101a11.915 11.915 0 0 0-8.026-3.1h-.076c-6.573.044-11.896 5.402-11.896 11.998 0 6.622 5.364 11.996 11.972 11.996 3.086 0 5.901-1.173 8.025-3.1a11.855 11.855 0 0 1-1.224-1.31h2.472c-.373.457-.78.886-1.216 1.285h-.002c-.01.01-.02.017-.03.026a11.913 11.913 0 0 0 8.035 3.103c6.612-.002 11.97-5.376 11.968-12v-.006c0-6.625-5.36-11.995-11.972-11.994z"/><path id="tx7xb" d="M600.87 5132.54c-.007-.005-.015-.014-.028-.019a.201.201 0 0 0-.066-.007h-.078v.124h.083c.039 0 .064-.004.08-.018a.054.054 0 0 0 .02-.045.062.062 0 0 0-.01-.034z"/><path id="tx7xc" d="M600.9 5132.874l-.037-.066a.346.346 0 0 0-.07-.098.091.091 0 0 0-.053-.015h-.04v.178h-.067v-.418h.144c.05 0 .085.004.105.012a.105.105 0 0 1 .072.102.12.12 0 0 1-.033.08.134.134 0 0 1-.086.038.09.09 0 0 1 .035.023.488.488 0 0 1 .062.082l.051.082zm.238-.408a.355.355 0 0 0-.147-.144.39.39 0 0 0-.189-.051.385.385 0 0 0-.19.051.359.359 0 0 0-.145.144.391.391 0 0 0 .337.58.386.386 0 0 0 .334-.58z"/><path id="tx7xd" d="M571.104 5126.825c-.934 0-1.123.42-1.123.77 0 .18.103.482.498.482.768 0 .927-1.008.902-1.222-.036-.008-.06-.03-.277-.03z"/><path id="tx7xe" d="M580.759 5125.114c-.695 0-.829.792-.829.876h1.415c0-.064.133-.876-.586-.876z"/><path id="tx7xf" d="M598.102 5125.252c-.56 0-1.004.653-1.003 1.643 0 .605.214.992.674.992.69 0 1.023-.903 1.023-1.576 0-.742-.235-1.059-.694-1.059z"/><path id="tx7xg" d="M600.736 5128.902l-.037-.065a.334.334 0 0 0-.07-.098.084.084 0 0 0-.054-.015h-.038v.177h-.07v-.417h.145c.05 0 .085.004.106.013.02.007.039.021.053.04a.096.096 0 0 1 .019.06c0 .031-.012.057-.033.08-.022.024-.051.034-.086.038a.114.114 0 0 1 .036.022.422.422 0 0 1 .06.082l.052.083h-.083zm.18-.375a.311.311 0 0 0-.121-.12.315.315 0 0 0-.436.12.334.334 0 0 0-.044.162c0 .055.015.11.042.16a.338.338 0 0 0 .28.166c.056 0 .11-.017.16-.045a.322.322 0 0 0 .119-.443z"/><path id="tx7xh" d="M591.767 5126.825c-.934 0-1.123.42-1.123.77 0 .18.102.482.499.482.767 0 .926-1.008.902-1.222-.038-.008-.06-.03-.278-.03z"/><path id="tx7xi" d="M600.708 5128.569a.075.075 0 0 0-.028-.02.233.233 0 0 0-.068-.01v.002h-.075v.126h.082c.039 0 .064-.005.08-.018a.065.065 0 0 0 .02-.046.055.055 0 0 0-.01-.034z"/></defs><g><g transform="translate(-562 -5114)"><g><g><g><use xlink:href="#tx7xa"/></g></g></g><g><g><g><use xlink:href="#tx7xb"/></g></g></g><g><g><g><use xlink:href="#tx7xc"/></g></g></g><g><g><g><use xlink:href="#tx7xd"/></g></g></g><g><g><g><use xlink:href="#tx7xe"/></g></g></g><g><g><g><use xlink:href="#tx7xf"/></g></g></g><g><g><g><use xlink:href="#tx7xg"/></g></g></g><g><g><g><use xlink:href="#tx7xh"/></g></g></g><g><g><g><use xlink:href="#tx7xi"/></g></g></g></g></g></svg>