<svg xmlns="http://www.w3.org/2000/svg" xmlns:xlink="http://www.w3.org/1999/xlink" width="24" height="24" viewBox="0 0 24 24"><defs><path id="pk2pa" d="M380 453c0-6.627 5.373-12 12-12s12 5.373 12 12-5.373 12-12 12-12-5.373-12-12z"/><path id="pk2pb" d="M396.737 453.904l-.748.2-.61-1.244a10.926 10.926 0 0 1-.397-.902l-.009.002c.039.359.067.662.077.989l.062 1.39-.756.203-1.541-2.858.737-.197.568 1.197c.164.344.334.72.465 1.015l.01-.002c-.04-.344-.065-.73-.089-1.126l-.076-1.319.734-.196.59 1.22c.163.339.3.651.436.979l.01-.003c-.046-.35-.074-.727-.108-1.106l-.086-1.316.7-.188zm-3.377.905zm-1.947.522l-.817-3.052 1.882-.505.152.566-1.19.32.17.633 1.122-.3.151.561-1.123.301.194.724 1.254-.336.152.566zm-.596.16l-.724.193-.967-1.002a11.685 11.685 0 0 1-.819-.936l-.012.009c.126.397.25.825.384 1.323l.246.918-.634.17-.817-3.052.806-.216.933.948c.267.274.55.605.778.913l.014-.004a11.7 11.7 0 0 1-.4-1.256l-.239-.892.633-.17.818 3.053zm7.312-5.34l-1.053-.608-.314-1.174a2.024 2.024 0 0 0-.947-1.235 2.02 2.02 0 0 0-1.543-.202l-1.174.314-1.05-.607a2.027 2.027 0 0 0-1.546-.203c-.525.14-.963.477-1.234.947l-.608 1.053-1.174.315a2.035 2.035 0 0 0-1.437 2.489l.315 1.174-.608 1.053a2.019 2.019 0 0 0-.203 1.542c.14.524.478.963.947 1.235l1.053.606.314 1.176c.14.524.477.961.947 1.234.47.272 1.017.344 1.543.203l1.174-.315 1.052.607a2.015 2.015 0 0 0 1.543.204c.526-.141.963-.478 1.234-.947l.608-1.054 1.174-.314a2.036 2.036 0 0 0 1.437-2.49l-.314-1.173.608-1.053a2.02 2.02 0 0 0 .202-1.542 2.02 2.02 0 0 0-.946-1.235z"/></defs><g><g transform="translate(-380 -441)"><g><use xlink:href="#pk2pa"/></g><g><use xlink:href="#pk2pb"/></g></g></g></svg>