<svg xmlns="http://www.w3.org/2000/svg" xmlns:xlink="http://www.w3.org/1999/xlink" width="62" height="17" viewBox="0 0 62 17"><defs><path id="o5fza" d="M682.194 5125.553c-.56.401-1.339.602-2.342.602h-.454c-.403 0-.65-.312-.562-.691l.557-2.354c.078-.377.484-.69.882-.687l.607-.004c.709 0 1.25.12 1.611.352.358.23.537.595.534 1.08.011.735-.276 1.301-.833 1.702zm3.994-3.62a2.72 2.72 0 0 0-1.012-1.068c-.456-.273-.994-.464-1.61-.577-.625-.111-1.348-.161-2.186-.17l-3.867.003c-.402.006-.796.312-.89.692l-2.603 11.082c-.094.375.158.689.56.689h1.852c.402 0 .8-.305.889-.689l.635-2.69c.085-.375.482-.688.888-.688h.53c2.265-.002 4.019-.455 5.279-1.361 1.266-.908 1.891-2.107 1.891-3.592-.001-.65-.11-1.196-.356-1.632z"/><path id="o5fzb" d="M692.133 5129.943l-.289.372-.728.368a2.644 2.644 0 0 1-.969.205c-.456 0-.813-.065-1.055-.197l-.357-.68c0-.367.086-.659.27-.883l.786-.522a6.92 6.92 0 0 1 1.22-.27c.424-.05 1.26-.145 1.37-.147l.128.22a76.116 76.116 0 0 1-.376 1.534zm2.986-6.426c-.698-.386-1.802-.578-3.31-.578-.746 0-1.49.057-2.24.17-.555.083-.609.099-.95.172-.704.15-.815.837-.815.837l-.227.912c-.128.581.215.559.358.51.307-.09.479-.182 1.107-.32.6-.132 1.233-.233 1.735-.226.74 0 1.307.076 1.685.232.372.158.558.43.558.823l-.032.256-.267.161c-1.05.065-1.81.16-2.732.29-.9.123-1.691.338-2.348.632-.706.303-1.23.711-1.595 1.23-.353.52-.53 1.152-.53 1.894 0 .697.256 1.274.754 1.72.5.438 1.162.651 1.952.651.5-.002.888-.04 1.163-.105l.897-.302.76-.412.698-.45.01.012-.07.29-.004.012v.003a.54.54 0 0 0 .495.678l.006.008H693.897l.025-.01c.37-.043.716-.333.797-.679l1.35-5.715.07-.466.033-.436c.005-.81-.352-1.41-1.053-1.794z"/><path id="o5fzc" d="M725.78 5129.951l-.3.376-.722.365c-.343.135-.67.205-.965.205-.47 0-.819-.066-1.053-.198l-.362-.677c0-.37.088-.658.265-.886.179-.215.453-.392.793-.521.332-.111.742-.2 1.22-.268.42-.051 1.254-.148 1.362-.149l.13.22a51.97 51.97 0 0 1-.368 1.533zm2.98-6.426c-.703-.386-1.805-.58-3.309-.58-.746 0-1.49.057-2.24.175-.555.079-.61.096-.953.167-.703.15-.812.839-.812.839l-.227.91c-.126.582.208.556.365.51.309-.089.474-.177 1.098-.32.597-.132 1.235-.23 1.738-.227.738 0 1.305.078 1.681.234.375.158.559.432.559.822l-.029.254-.264.165a30.014 30.014 0 0 0-2.734.288c-.899.122-1.692.336-2.35.631-.703.305-1.233.713-1.595 1.232-.357.521-.531 1.152-.531 1.887 0 .703.253 1.28.758 1.722.503.437 1.157.656 1.948.656.498-.005.885-.037 1.161-.107l.895-.298.766-.412.693-.456.012.015-.063.292-.007.006.003.005c-.084.353.136.646.492.678l.003.007h1.719l.028-.01c.366-.043.71-.333.788-.683l1.354-5.708.072-.468.039-.438c.001-.807-.352-1.405-1.058-1.788z"/><path id="o5fzd" d="M715.829 5125.6c-.559.393-1.338.593-2.337.593h-.46c-.399.004-.657-.313-.567-.69l.56-2.35c.083-.375.485-.69.886-.686l.6-.004c.712.004 1.246.118 1.61.35.363.233.535.597.539 1.08.004.736-.275 1.303-.831 1.706zm3.994-3.627a2.828 2.828 0 0 0-1.02-1.07c-.45-.275-.984-.468-1.609-.579a13.016 13.016 0 0 0-2.179-.166l-3.872.003c-.404.007-.791.313-.884.688l-2.605 11.089c-.094.375.165.687.559.687l1.854-.003c.394.003.798-.306.89-.686l.628-2.692c.092-.375.49-.69.89-.687h.53c2.268 0 4.026-.457 5.291-1.36 1.25-.914 1.883-2.11 1.883-3.597-.006-.648-.121-1.195-.356-1.627z"/><path id="o5fze" d="M735.705 5120.938c.085-.379-.158-.686-.556-.68h-1.66c-.34 0-.646.246-.795.55l-.092.14-.084.358-2.319 10.307-.075.317.003.008c-.077.339.136.594.465.643l.028.039h1.723c.337 0 .654-.251.799-.56l.089-.132 2.479-10.989z"/><path id="o5fzf" d="M707.705 5123.077c-.438.006-2.22 0-2.22 0-.4 0-.912.316-1.166.692 0 0-2.652 4.45-2.91 4.897l-.307-.004-.825-4.863c-.092-.383-.5-.71-1.01-.71l-1.659.003c-.399 0-.645.311-.554.691 0 0 1.26 7.01 1.512 8.661.117.91-.015 1.072-.015 1.072l-1.64 2.794c-.243.38-.112.69.286.69l1.918-.003c.4 0 .924-.307 1.162-.688l7.378-12.204c0 .001.71-1.042.05-1.028z"/></defs><g><g transform="translate(-674 -5120)"><g><g><g><use xlink:href="#o5fza"/></g></g></g><g><g><g><use xlink:href="#o5fzb"/></g></g></g><g><g><g><use xlink:href="#o5fzc"/></g></g></g><g><g><g><use xlink:href="#o5fzd"/></g></g></g><g><g><g><use xlink:href="#o5fze"/></g></g></g><g><g><g><use xlink:href="#o5fzf"/></g></g></g></g></g></svg>