<svg xmlns="http://www.w3.org/2000/svg" xmlns:xlink="http://www.w3.org/1999/xlink" width="24" height="24" viewBox="0 0 24 24"><defs><path id="obqqa" d="M580 453c0-6.627 5.373-12 12-12s12 5.373 12 12-5.373 12-12 12-12-5.373-12-12z"/><path id="obqqb" d="M596.71 446.696c-.29.763-.085 1.631.116 2.213a3.179 3.179 0 0 0-1.118.065c-.014.004-.025.009-.038.012.15-.311.28-.672.346-1.049.121-.699.185-.952.258-1.246.024-.097.05-.196.077-.316.026-.113.056-.225.085-.337l.048-.184a1.72 1.72 0 0 0 .031-.596c-.011-.111.049-.22.14-.254a.233.233 0 0 1 .21.024c.06.041.093.106.09.178-.018.443-.038.945-.245 1.49zm-.47 3.605c-.196-.222-.552-.418-1.203-.427a1.23 1.23 0 0 1 .133-.109c.003-.001.004-.004.007-.006.157-.109.37-.21.663-.289.009-.002.744-.186 1.309.057.15.064.273.154.372.267l.013.015c-.637.047-1.051.285-1.295.492zm-.733 3.386a7.016 7.016 0 0 1-2.18 3.166 6.884 6.884 0 0 1-2.637 1.353.262.262 0 0 1-.324-.178.262.262 0 0 1 .192-.317 6.333 6.333 0 0 0 2.679-1.464 6.49 6.49 0 0 0 1.765-2.712.272.272 0 0 1 .336-.17.25.25 0 0 1 .17.322zm1.98-8.47a.703.703 0 0 0-.309-.61.771.771 0 0 0-.705-.082.76.76 0 0 0-.487.795c.021.206.002.343-.018.42l-.047.18c-.03.117-.061.234-.09.352-.026.116-.05.214-.074.308-.073.29-.142.565-.266 1.283a3.696 3.696 0 0 1-.661 1.51c-.416.307-.671.814-.576 1.317.217 1.826-.432 3.625-1.738 4.814a6.244 6.244 0 0 1-.215.186c-1.169.97-2.769 1.395-4.39 1.165-1.422-.201-2.256.005-2.706.213a1.342 1.342 0 0 0-.734.838c-.088.307.006.48.1.571.211.204.542.128.607.11a.273.273 0 0 0 .11-.059c.287-.253.767.013.77.015a8.568 8.568 0 0 0 3.234 1.09 8.185 8.185 0 0 0 3.124-.221c1.887-.506 3.582-1.67 4.699-3.316 1.307-1.928 1.276-3.894 1.252-5.329-.01-.659-.263-1.339-.888-1.66l-.01-.007c-.187-.46-.558-1.453-.26-2.235.236-.622.258-1.168.277-1.649z"/></defs><g><g transform="translate(-580 -441)"><g><use xlink:href="#obqqa"/></g><g><use xlink:href="#obqqb"/></g></g></g></svg>