<svg xmlns="http://www.w3.org/2000/svg" xmlns:xlink="http://www.w3.org/1999/xlink" width="16" height="27" viewBox="0 0 16 27"><defs><path id="1ccfa" d="M410.407 624.086h-12.893v-1.548c0-.653.531-1.185 1.185-1.185h10.523c.653 0 1.185.532 1.185 1.185zm0 15.896h-12.893v-14.343h12.893zm0 3.14c0 .654-.532 1.186-1.185 1.186h-10.523a1.187 1.187 0 0 1-1.185-1.186v-1.587h12.893zm-1.185-23.322h-10.523a2.742 2.742 0 0 0-2.739 2.738v20.584a2.742 2.742 0 0 0 2.739 2.739h10.522a2.742 2.742 0 0 0 2.74-2.739v-20.584a2.742 2.742 0 0 0-2.74-2.738z"/></defs><g><g transform="translate(-396 -619)"><use xlink:href="#1ccfa"/></g></g></svg>