<svg xmlns="http://www.w3.org/2000/svg" xmlns:xlink="http://www.w3.org/1999/xlink" width="40" height="40" viewBox="0 0 40 40"><defs><path id="rhqxa" d="M1182.394 1144.91l15.2-8.849c.41-.24.89-.304 1.35-.182.464.124.85.425 1.091.844l.002.004-14.054 8.183zm20.347-3.46l1.981 3.46h-7.923zm6.532 25.278h-6.364c-4.01 0-7.273-3.263-7.273-7.273s3.263-7.273 7.273-7.273h6.364c.502 0 .909-.406.909-.909v-2.727c0-1.906-1.479-3.457-3.347-3.607l-5.221-9.12a3.593 3.593 0 0 0-2.2-1.696 3.573 3.573 0 0 0-2.736.367l-17.898 10.42h-3.144a3.64 3.64 0 0 0-3.636 3.636v21.818a3.64 3.64 0 0 0 3.636 3.637h30.91a3.64 3.64 0 0 0 3.636-3.637v-2.727a.909.909 0 0 0-.91-.91z"/><path id="rhqxb" d="M1202.91 1161.273a1.82 1.82 0 0 1-1.819-1.818 1.82 1.82 0 0 1 1.818-1.818 1.82 1.82 0 0 1 1.818 1.818 1.82 1.82 0 0 1-1.818 1.818zm6.363-7.272h-6.364a5.46 5.46 0 0 0-5.454 5.454 5.46 5.46 0 0 0 5.454 5.455h6.364a2.73 2.73 0 0 0 2.727-2.728v-5.454a2.73 2.73 0 0 0-2.727-2.727z"/></defs><g><g transform="translate(-1172 -1134)"><g><g><g><use xlink:href="#rhqxa"/></g><g><use xlink:href="#rhqxb"/></g></g></g></g></g></svg>