<svg xmlns="http://www.w3.org/2000/svg" xmlns:xlink="http://www.w3.org/1999/xlink" width="24" height="24" viewBox="0 0 24 24"><defs><path id="qbqfa" d="M380 505c0-6.627 5.373-12 12-12s12 5.373 12 12-5.373 12-12 12-12-5.373-12-12z"/><path id="qbqfb" d="M388.21 504.316c.137.24.389.374.652.374.137 0 .28-.035.409-.11.373-.219.511-.692.3-1.059-.205-.363-.683-.484-1.062-.262-.375.219-.512.696-.299 1.057zm6.355 2.696a.814.814 0 0 0 .403-.109.787.787 0 0 0 .306-1.06c-.209-.364-.687-.482-1.062-.264-.375.22-.514.695-.307 1.06.139.24.395.373.66.373zm-5.617-4.787a1.65 1.65 0 0 1 1.444.819c.462.803.158 1.849-.67 2.33-.826.482-1.875.224-2.338-.578-.455-.803-.155-1.847.67-2.33a1.78 1.78 0 0 1 .894-.241zm5.703 2.319c.58 0 1.137.294 1.442.822.459.803.158 1.848-.67 2.326-.83.487-1.875.226-2.336-.577-.46-.802-.156-1.846.672-2.328a1.77 1.77 0 0 1 .892-.243zm-2.154-3.769a.488.488 0 0 1 .578-.337.446.446 0 0 1 .322.561l-2.414 8.387a.473.473 0 0 1-.222.284.474.474 0 0 1-.356.054.449.449 0 0 1-.322-.56l2.414-8.389zM389.82 512.6c.272.318.657.482 1.051.482.25 0 .504-.066.735-.2.058-.033.113-.073.171-.113l1.102-.863a.481.481 0 0 1 .41-.092l1.334.306c.37.086.744.018 1.059-.159.304-.184.552-.478.662-.844l.406-1.318a.505.505 0 0 1 .283-.313l1.291-.533c.715-.294 1.082-1.082.83-1.789l-.447-1.273a.463.463 0 0 1 .05-.412l.753-1.17c.42-.65.254-1.483-.375-1.896l-1.127-.741a.441.441 0 0 1-.207-.356l-.072-1.357c-.038-.758-.67-1.32-1.44-1.276l-1.38.073a.454.454 0 0 1-.38-.163l-.867-1.028c-.48-.573-1.344-.647-1.955-.168l-1.1.857c-.12.097-.27.13-.414.097l-1.332-.309c-.746-.172-1.5.27-1.724 1.004l-.4 1.315a.503.503 0 0 1-.29.317l-1.287.53c-.72.298-1.086 1.084-.834 1.792l.45 1.272a.453.453 0 0 1-.053.414l-.75 1.17c-.42.647-.258 1.483.377 1.894l1.129.74c.123.081.195.21.203.358l.07 1.357c.04.757.672 1.316 1.441 1.275l1.377-.074a.475.475 0 0 1 .383.163l.867 1.03z"/></defs><g><g transform="translate(-380 -493)"><g><use xlink:href="#qbqfa"/></g><g><use xlink:href="#qbqfb"/></g></g></g></svg>