<svg xmlns="http://www.w3.org/2000/svg" xmlns:xlink="http://www.w3.org/1999/xlink" width="24" height="24" viewBox="0 0 24 24">
	<defs>
		<path id="utvpa" d="M1534.457 21.638v4.381l4.038-2.171z"/>
		<path id="utvpb" d="M1543.429 24.59c0 1.258-.115 2.534-.115 2.534s-.133 1.066-.571 1.543c-.572.628-1.2.628-1.486.666-2.095.153-5.238.172-5.238.172s-3.905-.057-5.105-.172c-.324-.057-1.085-.038-1.657-.666-.457-.477-.571-1.543-.571-1.543s-.115-1.276-.115-2.534v-1.18c0-1.258.115-2.534.115-2.534s.133-1.066.571-1.543c.572-.628 1.2-.647 1.486-.685 2.114-.153 5.257-.172 5.257-.172s3.143.02 5.238.172c.286.038.933.057 1.505.666.457.476.571 1.562.571 1.562s.115 1.276.115 2.534zM1541.98 12H1530c-3.295 0-6 2.705-6 6.02V30c0 3.295 2.705 6 6 6h11.981c3.314 0 6.019-2.705 6.019-6.02V18.02c0-3.315-2.705-6.02-6.019-6.02z"/>
	</defs>
	<g>
		<g transform="translate(-1524 -12)">
			<g>
				<g>
					<g>
						<use xlink:href="#utvpa"/>
					</g>
				</g>
			</g>
			<g>
				<g>
					<g>
						<use xlink:href="#utvpb"/>
					</g>
				</g>
			</g>
		</g>
	</g>
</svg>