<svg xmlns="http://www.w3.org/2000/svg" xmlns:xlink="http://www.w3.org/1999/xlink" width="24" height="24" viewBox="0 0 24 24">
	<defs>
		<path id="slapa" d="M1419.219 24h-2.267v7.429h-2.857V24h-1.524v-3.048h1.334v-1.295c0-1.219.61-3.143 3.18-3.143h2.344v2.534h-1.658c-.266 0-.628.171-.628.762v1.142h2.343zm2.762-12H1410c-3.295 0-6 2.705-6 6.02V30c0 3.295 2.705 6 6 6h11.981c3.314 0 6.019-2.705 6.019-6.02V18.02c0-3.315-2.705-6.02-6.019-6.02z"/>
	</defs>
	<g>
		<g transform="translate(-1404 -12)">
			<g>
				<g>
					<use xlink:href="#slapa"/>
				</g>
			</g>
		</g>
	</g>
</svg>