<svg xmlns="http://www.w3.org/2000/svg" xmlns:xlink="http://www.w3.org/1999/xlink" width="24" height="24" viewBox="0 0 24 24">
	<defs>
		<path id="16boa" d="M1461.948 20.99v.4c0 4-3.084 8.61-8.736 8.61a8.757 8.757 0 0 1-4.701-1.352c.247.019.476.038.723.038 1.446 0 2.76-.476 3.806-1.296a3.067 3.067 0 0 1-2.873-2.095c.19.038.38.057.57.057.286 0 .571-.038.819-.114a3.043 3.043 0 0 1-2.417-2.971v-.038c.38.228.875.361 1.37.38a3.013 3.013 0 0 1-1.37-2.514c0-.552.152-1.066.418-1.524a8.79 8.79 0 0 0 6.32 3.162 2.806 2.806 0 0 1-.077-.685c0-1.677 1.37-3.029 3.064-3.029.876 0 1.675.362 2.246.952a5.71 5.71 0 0 0 1.942-.742 3.1 3.1 0 0 1-1.352 1.676 6.077 6.077 0 0 0 1.77-.476 6.252 6.252 0 0 1-1.522 1.561zm.019-8.99h-11.953c-3.311 0-6.014 2.705-6.014 6.02V30c0 3.295 2.703 6 6.014 6h11.972c3.311 0 6.014-2.705 6.014-6.02V18.02c-.019-3.315-2.722-6.02-6.033-6.02z"/>
	</defs>
	<g>
		<g transform="translate(-1444 -12)">
			<g>
				<g>
					<use xlink:href="#16boa"/>
				</g>
			</g>
		</g>
	</g>
</svg>