<svg xmlns="http://www.w3.org/2000/svg" xmlns:xlink="http://www.w3.org/1999/xlink" width="24" height="24" viewBox="0 0 24 24">
	<defs>
		<path id="ltwna" d="M1498.133 22.457a2.624 2.624 0 0 0-2.133-1.105c-.876 0-1.657.438-2.133 1.105a2.706 2.706 0 0 0-.496 1.543 2.634 2.634 0 0 0 2.629 2.629 2.634 2.634 0 0 0 2.629-2.629c0-.571-.19-1.105-.496-1.543z"/>
		<path id="ltwnb" d="M1499.79 22.476c.191.381.305.99.305 1.524a4.101 4.101 0 0 1-4.095 4.095 4.089 4.089 0 0 1-4.095-4.095c0-.552.114-1.143.305-1.524h-2.305v6.114c0 .8.705 1.505 1.505 1.505h9.18c.8 0 1.505-.705 1.505-1.505v-6.114z"/>
		<path id="ltwnc" d="M1501.41 18.248h-2.21v2.533h2.514v-2.552z"/>
		<path id="ltwnd" d="M1503.429 22.457v6.133c0 1.6-1.239 2.839-2.839 2.839h-9.18c-1.6 0-2.839-1.239-2.839-2.839v-9.18c0-1.6 1.239-2.839 2.839-2.839h9.18c1.6 0 2.839 1.239 2.839 2.839zM1501.98 12h-11.962c-3.314 0-6.019 2.705-6.019 6.02V30c0 3.295 2.705 6 6.02 6H1502c3.314 0 6.02-2.705 6.02-6.02V18.02c-.02-3.315-2.725-6.02-6.039-6.02z"/>
	</defs>
	<g>
		<g transform="translate(-1484 -12)">
			<g>
				<g>
					<g>
						<use xlink:href="#ltwna"/>
					</g>
				</g>
			</g>
			<g>
				<g>
					<g>
						<use xlink:href="#ltwnb"/>
					</g>
				</g>
			</g>
			<g>
				<g>
					<g>
						<use xlink:href="#ltwnc"/>
					</g>
				</g>
			</g>
			<g>
				<g>
					<g>
						<use xlink:href="#ltwnd"/>
					</g>
				</g>
			</g>
		</g>
	</g>
</svg>