<svg xmlns="http://www.w3.org/2000/svg" xmlns:xlink="http://www.w3.org/1999/xlink" width="24" height="24" viewBox="0 0 24 24"><defs><path id="s7kwa" d="M580 401c0-6.627 5.373-12 12-12s12 5.373 12 12-5.373 12-12 12-12-5.373-12-12z"/><path id="s7kwb" d="M591.035 400.146c-1.047-1.908-2.943-2.85-3.787-3.367.643.117 2.639.801 4.457 2.698.14.145.426.458.434.45-.207-2.985-2.975-5.406-5.9-5.406-.594 0-1.233.078-1.913.245a.42.42 0 0 0-.316.489c.187 1.018.941 3.738 3.71 4.89zm3.502 0c1.414-.779 1.947-2.183 2.133-2.904a.428.428 0 0 0-.356-.53c-2.193-.314-3.3.298-4.074 1.528.055.132.106.262.156.395.118.315.196.682.233 1.034 1.064-.602 1.982-1.366 2.31-1.583-.24.26-.904 1.072-2.091 2.06zm-.752 7.203a6.215 6.215 0 0 0 6.213-6.214v-.051h.004a.427.427 0 0 0-.426-.426h-13.148a.428.428 0 0 0-.43.426v.05a6.215 6.215 0 0 0 6.215 6.215z"/></defs><g><g transform="translate(-580 -389)"><g><use xlink:href="#s7kwa"/></g><g><use xlink:href="#s7kwb"/></g></g></g></svg>