<svg xmlns="http://www.w3.org/2000/svg" xmlns:xlink="http://www.w3.org/1999/xlink" width="48" height="15" viewBox="0 0 48 15"><defs><path id="9xwja" d="M517.22 5118.25l-2.44 14.532h3.902l2.441-14.532z"/><path id="9xwjb" d="M511.509 5118.266l-3.822 9.91-.407-1.496c-.754-1.803-2.893-4.392-5.405-6.024l3.494 12.12 4.129-.008 6.144-14.505z"/><path id="9xwjc" d="M505.799 5119.306c-.227-.885-.884-1.149-1.7-1.18h-6.049l-.05.289c4.707 1.16 7.822 3.952 9.115 7.31z"/><path id="9xwjd" d="M529.03 5121.036a7.11 7.11 0 0 1 2.92.556l.353.168.527-3.15c-.772-.294-1.983-.61-3.495-.61-3.855 0-6.572 1.971-6.593 4.796-.026 2.087 1.935 3.253 3.416 3.949 1.52.713 2.03 1.166 2.023 1.803-.012.972-1.212 1.419-2.333 1.419-1.562 0-2.392-.22-3.673-.761l-.503-.233-.549 3.253c.913.407 2.598.756 4.347.774 4.101 0 6.766-1.947 6.794-4.966.018-1.651-1.023-2.911-3.278-3.945-1.365-.674-2.2-1.123-2.191-1.803 0-.604.708-1.25 2.235-1.25z"/><path id="9xwje" d="M538.031 5127.633c.322-.834 1.555-4.062 1.555-4.062-.021.04.318-.84.52-1.387l.263 1.253.904 4.196zm4.812-9.367h-3.014c-.937 0-1.633.259-2.044 1.206l-5.793 13.318h4.097s.668-1.79.82-2.183l4.996.007c.116.507.475 2.176.475 2.176H546z"/></defs><g><g transform="translate(-498 -5118)"><g><g><g><use xlink:href="#9xwja"/></g></g></g><g><g><g><use xlink:href="#9xwjb"/></g></g></g><g><g><g><use xlink:href="#9xwjc"/></g></g></g><g><g><g><use xlink:href="#9xwjd"/></g></g></g><g><g><g><use xlink:href="#9xwje"/></g></g></g></g></g></svg>