<svg xmlns="http://www.w3.org/2000/svg" xmlns:xlink="http://www.w3.org/1999/xlink" width="90" height="24" viewBox="0 0 90 24"><defs><path id="fv3ia" d="M834.794 5127.808l2.112-1.933 1.907 2.138-2.112 1.933z"/><path id="fv3ib" d="M829.88 5130.183l2.817-2.569 2.537 2.855-2.817 2.568z"/><path id="fv3ic" d="M839.308 5126.48l1.407-1.285 1.268 1.425-1.407 1.284z"/><path id="fv3id" d="M831.037 5118.985l2.114-1.928 1.903 2.142-2.114 1.927z"/><path id="fv3ie" d="M837.51 5122.221l1.404-1.285 1.27 1.424-1.404 1.285z"/><path id="fv3if" d="M761.439 5121.057l-1.38 7.244h-.096l-1.88-7.244h-1.202l-1.757 7.244h-.096l-1.513-7.244H752l2.19 9.71h1.46l1.785-6.836h.095l1.838 6.835h1.461l2.192-9.71z"/><path id="fv3ig" d="M827.88 5125.24l2.818-2.57 2.537 2.854-2.82 2.57z"/><path id="fv3ih" d="M825.867 5120.375l2.818-2.57 2.537 2.855-2.818 2.57z"/><path id="fv3ii" d="M832.984 5123.292l2.109-1.928 1.907 2.14-2.109 1.928z"/><path id="fv3ij" d="M835.699 5117.988l1.407-1.285 1.268 1.425-1.407 1.285z"/><path id="fv3ik" d="M813.966 5123.986l-1.535 5.044h-.081l-1.73-5.043h-1.486l2.593 6.85c-.324 1.015-.89 1.753-1.81 1.753v1.12c1.552 0 2.377-.985 3.053-2.876l2.444-6.848z"/><path id="fv3il" d="M764.833 5126.684c.148-1.366.785-2.011 1.61-2.011.73 0 1.419.572 1.485 2.011zm4.378.417c.002-2.238-1.04-3.344-2.73-3.344-2.027 0-3.067 1.504-3.067 3.587 0 2.165.934 3.589 3.203 3.589a4.68 4.68 0 0 0 2.392-.635v-1.036c-.743.448-1.42.711-2.148.711-1.391 0-2.055-.723-2.055-2.37h4.405z"/><path id="fv3im" d="M836.654 5132.13l2.113-1.928 1.905 2.142-2.113 1.928z"/><path id="fv3in" d="M804.327 5126.684c.151-1.366.788-2.011 1.612-2.011.727 0 1.42.572 1.486 2.011zm4.38.417c.003-2.238-1.04-3.344-2.728-3.344-2.03 0-3.068 1.504-3.068 3.587 0 2.165.932 3.589 3.201 3.589.973 0 1.78-.275 2.39-.635v-1.036c-.741.448-1.417.711-2.146.711-1.39 0-2.056-.723-2.056-2.37h4.406z"/><path id="fv3io" d="M835.06 5132.628l-2.754 2.573-4.65-5.242 1.293-1.153-3.256-3.693 1.3-1.155-3.304-3.689 5.157-4.703 1.638 1.816 2.765-2.5 1.634 1.716 1.09-.988a10.205 10.205 0 0 0-.735-.393 11.67 11.67 0 0 0-5.193-1.217c-6.523 0-11.846 5.39-11.846 12.001 0 6.609 5.323 11.999 11.846 11.999 2.12 0 4.117-.568 5.839-1.564a12.897 12.897 0 0 0 1.558-1.049z"/><path id="fv3ip" d="M773.078 5129.971c-.34 0-.81-.025-1.243-.217v-4.478c.541-.302.934-.452 1.472-.452.905 0 1.53.563 1.53 2.299 0 2.218-.758 2.848-1.76 2.848zm.595-6.214c-.73 0-1.42.287-1.827.506v-3.903l-1.405.342v9.558c.812.437 1.919.67 2.637.67 1.96 0 3.176-1.247 3.176-3.809 0-2.187-.905-3.364-2.58-3.364z"/><path id="fv3iq" d="M799.424 5123.754c-1.554 0-2.839.643-3.447 1.012v5.997h1.404v-5.422c.418-.246 1.109-.493 1.648-.493.695 0 1.22.192 1.22 1.274v4.642h1.405v-4.955c0-1.409-.61-2.052-2.23-2.055z"/><path id="fv3ir" d="M785.366 5121.057l-2.89 7.654h-.068l-3.028-7.654h-1.634v9.71h1.216v-6.876h.12l2.758 6.875h.864l2.758-7.042h.12v7.042h1.46v-9.71z"/><path id="fv3is" d="M791.61 5129.971c-.959 0-1.662-.749-1.662-2.627 0-1.85.772-2.63 1.663-2.63.92 0 1.663.78 1.663 2.63 0 1.876-.704 2.627-1.663 2.627zm0-6.214c-1.783 0-3.082 1.192-3.082 3.587 0 2.34 1.232 3.589 3.083 3.589 1.852 0 3.082-1.248 3.082-3.59 0-2.396-1.298-3.586-3.082-3.586z"/></defs><g><g transform="translate(-752 -5114)"><g><g><g><use xlink:href="#fv3ia"/></g></g></g><g><g><g><use xlink:href="#fv3ib"/></g></g></g><g><g><g><use xlink:href="#fv3ic"/></g></g></g><g><g><g><use xlink:href="#fv3id"/></g></g></g><g><g><g><use xlink:href="#fv3ie"/></g></g></g><g><g><g><use xlink:href="#fv3if"/></g></g></g><g><g><g><use xlink:href="#fv3ig"/></g></g></g><g><g><g><use xlink:href="#fv3ih"/></g></g></g><g><g><g><use xlink:href="#fv3ii"/></g></g></g><g><g><g><use xlink:href="#fv3ij"/></g></g></g><g><g><g><use xlink:href="#fv3ik"/></g></g></g><g><g><g><use xlink:href="#fv3il"/></g></g></g><g><g><g><use xlink:href="#fv3im"/></g></g></g><g><g><g><use xlink:href="#fv3in"/></g></g></g><g><g><g><use xlink:href="#fv3io"/></g></g></g><g><g><g><use xlink:href="#fv3ip"/></g></g></g><g><g><g><use xlink:href="#fv3iq"/></g></g></g><g><g><g><use xlink:href="#fv3ir"/></g></g></g><g><g><g><use xlink:href="#fv3is"/></g></g></g></g></g></svg>