<svg xmlns="http://www.w3.org/2000/svg" xmlns:xlink="http://www.w3.org/1999/xlink" width="30" height="25" viewBox="0 0 30 25"><defs><path id="9lnqa" d="M376.078 1763.784zm8.509-10.397v-.42a3.31 3.31 0 0 1-3.688-3.282 3.31 3.31 0 0 1 3.688-3.282v-6.24h-5.773v13.194c0 5.525-2.86 6.477-3.814 6.808l1.078 3.62c5.724-.597 8.509-6.12 8.509-10.398zm-2.583-3.702c0 1.216.99 2.201 2.211 2.201a2.206 2.206 0 0 0 2.212-2.201c0-1.216-.99-2.202-2.212-2.202a2.206 2.206 0 0 0-2.21 2.202zm15.361 8.538c4.349 0 7.24-2.164 7.24-5.806 0-3.388-2.559-4.712-6.677-5.604-2.481-.56-3.095-.916-3.095-1.731 0-.688.588-1.197 1.79-1.197 1.587 0 3.377.61 5.014 1.757l2.481-3.49c-1.944-1.553-4.323-2.368-7.366-2.368-4.298 0-6.932 2.394-6.932 5.705 0 3.718 2.941 4.788 6.752 5.654 2.43.56 3.019.968 3.019 1.706 0 .815-.716 1.274-2.047 1.274-2.071 0-4.041-.739-5.806-2.14l-2.763 3.286c2.2 1.961 5.219 2.954 8.39 2.954z"/></defs><g><g transform="translate(-375 -1739)"><use fill="#e40000" xlink:href="#9lnqa"/></g></g></svg>