<svg xmlns="http://www.w3.org/2000/svg" xmlns:xlink="http://www.w3.org/1999/xlink" width="180" height="50" viewBox="0 0 180 50"><defs><path id="ryh8a" d="M532.496 112.064c.533-3.13 2.345-5.2 5.01-5.2 2.77 0 4.635 2.017 5.008 5.2zm5.862 17.404c5.755 0 9.752-2.335 12.523-5.837l-4.223-3.553c-3.247 3.15-11.84 5.027-14.002-2.867h19.29c.054-.69.054-1.433.054-2.07 0-8.436-4.583-15.705-14.548-15.705-8.526 0-14.548 6.633-14.548 15.016 0 9.02 6.395 15.016 15.454 15.016zm-38.334-.69h10.125v-8.914c0-6.633 2.984-9.657 8.26-9.657h.852V99.595c-4.796-.212-7.46 2.335-9.112 6.261v-5.783h-10.125v28.705zm-21.92-7.853c-3.571 0-6.129-2.971-6.129-6.473 0-3.555 2.345-6.473 6.022-6.473 3.57 0 6.128 2.971 6.128 6.473 0 3.555-2.345 6.473-6.022 6.473zm-.107 8.543c9.272 0 15.986-6.845 15.986-15.016 0-8.277-6.66-15.016-15.88-15.016-9.272 0-15.986 6.845-15.986 15.016 0 8.277 6.66 15.016 15.88 15.016zm-27.197-.107c2.824 0 5.222-.636 7.034-1.644v-7.906c-1.225.583-2.504.955-3.836.955-1.866 0-2.771-.849-2.771-2.865v-9.71h6.714v-8.118h-6.714v-7.27l-10.125 4.14v3.13h-3.41v8.118h3.41v11.673c0 6.845 3.623 9.498 9.698 9.498zM374.246 141zm17.726-21.662v-.875a6.978 6.978 0 0 1-.773.043c-3.816 0-6.91-3.08-6.91-6.88s3.093-6.88 6.91-6.88c.261 0 .519.014.773.043V91.79h-12.026v27.486c0 11.51-5.958 13.495-7.946 14.184l2.246 7.54c11.924-1.241 17.726-12.748 17.726-21.662zm-5.38-7.712c0 2.533 2.063 4.587 4.607 4.587s4.606-2.054 4.606-4.587-2.062-4.587-4.606-4.587-4.607 2.054-4.607 4.587zm32.003 17.789c9.059 0 15.08-4.51 15.08-12.098 0-7.057-5.329-9.816-13.908-11.673-5.17-1.167-6.448-1.91-6.448-3.608 0-1.432 1.226-2.494 3.73-2.494 3.304 0 7.034 1.274 10.445 3.661l5.169-7.269c-4.05-3.236-9.006-4.934-15.347-4.934-8.953 0-14.442 4.987-14.442 11.885 0 7.747 6.129 9.975 14.069 11.78 5.062 1.166 6.288 2.015 6.288 3.554 0 1.698-1.492 2.653-4.264 2.653-4.316 0-8.42-1.539-12.096-4.457l-5.755 6.844c4.582 4.086 10.87 6.155 17.478 6.155z"/></defs><g><g transform="translate(-372 -91)"><use fill="#e40000" xlink:href="#ryh8a"/></g></g></svg>