<svg xmlns="http://www.w3.org/2000/svg" xmlns:xlink="http://www.w3.org/1999/xlink" width="48" height="33" viewBox="0 0 48 33"><defs><path id="zxvza" d="M809.5 1168a4.473 4.473 0 0 1-3-1.167 4.473 4.473 0 0 1-3 1.167 4.502 4.502 0 0 1-4.5-4.5c0-2.484 2.016-4.5 4.5-4.5 1.158 0 2.202.45 3 1.167a4.473 4.473 0 0 1 3-1.167c2.484 0 4.5 2.016 4.5 4.5s-2.016 4.5-4.5 4.5zm-21-3h-9a1.5 1.5 0 0 1 0-3h9a1.5 1.5 0 0 1 0 3zm-16.5-12v18c0 1.656 1.347 3 3 3h42c1.656 0 3-1.344 3-3v-18z"/><path id="zxvzb" d="M817 1141h-42c-1.653 0-3 1.347-3 3v3h48v-3c0-1.653-1.344-3-3-3z"/></defs><g><g transform="translate(-772 -1141)"><g><g><g><use fill="#e40000" xlink:href="#zxvza"/></g></g></g><g><g><g><use fill="#e40000" xlink:href="#zxvzb"/></g></g></g></g></g></svg>