<svg xmlns="http://www.w3.org/2000/svg" xmlns:xlink="http://www.w3.org/1999/xlink" width="80" height="23" viewBox="0 0 80 23"><defs><path id="xqqta" d="M135.332 22.362c.237-1.392 1.042-2.311 2.226-2.311 1.232 0 2.06.896 2.226 2.31zm2.605 7.735c2.558 0 4.334-1.038 5.566-2.594l-1.877-1.58c-1.443 1.4-5.263 2.235-6.223-1.274h8.573c.024-.306.024-.637.024-.92 0-3.75-2.037-6.98-6.466-6.98-3.789 0-6.465 2.948-6.465 6.674 0 4.009 2.842 6.674 6.868 6.674zM125.4 29.79v-3.962c0-2.947 1.326-4.292 3.67-4.292h.38V16.82c-2.132-.094-3.316 1.038-4.05 2.783v-2.57h-4.5V29.79zm-14.243-3.49c-1.587 0-2.724-1.32-2.724-2.877 0-1.58 1.042-2.877 2.677-2.877 1.587 0 2.723 1.32 2.723 2.877 0 1.58-1.042 2.877-2.676 2.877zm-.047 3.797c4.12 0 7.105-3.042 7.105-6.674 0-3.679-2.96-6.674-7.058-6.674-4.121 0-7.105 3.042-7.105 6.674 0 3.679 2.96 6.674 7.058 6.674zm-12.088-.048c1.256 0 2.321-.283 3.127-.73v-3.514c-.545.26-1.114.424-1.706.424-.829 0-1.231-.377-1.231-1.273V20.64h2.984v-3.608h-2.984v-3.23l-4.5 1.839v1.391h-1.516v3.608h1.516v5.188c0 3.042 1.61 4.221 4.31 4.221zm-34.024 5.173zm7.879-9.627v-.39a3.065 3.065 0 0 1-3.415-3.039 3.065 3.065 0 0 1 3.415-3.038v-5.777H67.53v12.216c0 5.116-2.647 5.998-3.53 6.304l.997 3.351c5.3-.552 7.879-5.666 7.879-9.627zm-2.392-3.428c0 1.126.917 2.039 2.048 2.039 1.13 0 2.047-.913 2.047-2.039a2.043 2.043 0 0 0-2.047-2.039c-1.13 0-2.048.913-2.048 2.039zm14.224 7.906c4.026 0 6.702-2.004 6.702-5.377 0-3.136-2.368-4.362-6.181-5.188-2.298-.518-2.866-.849-2.866-1.603 0-.637.545-1.109 1.658-1.109 1.468 0 3.126.566 4.642 1.628l2.297-3.231C89.161 13.754 86.96 13 84.141 13c-3.98 0-6.419 2.216-6.419 5.282 0 3.443 2.724 4.433 6.253 5.235 2.25.519 2.794.896 2.794 1.58 0 .755-.663 1.18-1.895 1.18-1.918 0-3.742-.685-5.376-1.982l-2.558 3.042c2.037 1.816 4.832 2.736 7.769 2.736z"/></defs><g><g transform="translate(-64 -13)"><use fill="#e40000" xlink:href="#xqqta"/></g></g></svg>